<?xml version="1.0" encoding="iso-8859-1"?>
<!-- Generator: Adobe Illustrator 18.0.0, SVG Export Plug-In . SVG Version: 6.00 Build 0)  -->
<!DOCTYPE svg PUBLIC "-//W3C//DTD SVG 1.1//EN" "http://www.w3.org/Graphics/SVG/1.1/DTD/svg11.dtd">
<svg version="1.1" id="Capa_1" xmlns="http://www.w3.org/2000/svg" xmlns:xlink="http://www.w3.org/1999/xlink" x="0px" y="0px"
	 viewBox="0 0 295.567 295.567" style="enable-background:new 0 0 295.567 295.567;" xml:space="preserve">
<g>
	<path d="M147.783,97.503c11.505,0,20.835-9.322,20.835-20.834c0-7.313-3.782-13.736-9.49-17.452
		c1.132-0.756,2.422-1.456,3.92-2.065c0.712-0.288,1.191-0.964,1.227-1.73c0.037-0.767-0.377-1.485-1.059-1.84
		c-3.294-1.712-7.31-1.746-11.098-1.02c0.643-1.204,1.453-2.435,2.492-3.682c0.491-0.591,0.596-1.412,0.266-2.105
		c-0.329-0.693-1.032-1.132-1.8-1.123c-7.614,0.087-14.599,7.805-17.381,12.422c-0.496,0.822-0.895,1.683-1.194,2.555
		c-4.611,3.82-7.551,9.588-7.551,16.04C126.95,88.181,136.279,97.503,147.783,97.503z"/>
	<path d="M294.09,160.576c-5.34-7.952-24.645-36.699-32.967-49.089c-1.413-2.105-3.661-3.061-5.911-3.738
		c-2.638-0.794-26.839-0.8-29.479,0.011c-2.223,0.682-4.439,1.646-5.837,3.728c-2.373,3.533-16.675,24.83-25.749,38.343
		c-9.703-14.448-25.749-38.343-25.749-38.343c-1.414-2.106-3.662-3.061-5.913-3.738c-2.637-0.794-26.837-0.799-29.477,0.011
		c-2.224,0.682-4.441,1.646-5.839,3.728c-2.35,3.499-16.669,24.822-25.748,38.342c-9.447-14.068-24.876-37.042-25.748-38.342
		c-1.413-2.105-3.662-3.061-5.912-3.738c-2.638-0.794-26.839-0.799-29.481,0.012c-2.222,0.682-4.437,1.645-5.834,3.727
		c-3.334,4.966-29.639,44.133-32.967,49.089c-2.677,3.985-1.616,9.387,2.37,12.063c3.986,2.678,9.387,1.615,12.063-2.37
		l13.039-19.416c0,0.369-11.748,48.133-11.836,48.491c-0.553,2.251-0.039,4.631,1.391,6.454c1.431,1.823,3.619,2.889,5.938,2.889
		h4.534v30.36c0,6.002,4.865,10.867,10.867,10.867c6.002,0,10.867-4.865,10.867-10.867v-30.36h8.693v30.36
		c0,6.002,4.865,10.867,10.867,10.867c6.002,0,10.867-4.865,10.867-10.867v-30.36h4.48c2.318,0,4.507-1.065,5.938-2.889
		c1.431-1.823,1.943-4.203,1.392-6.454c-0.117-0.477-11.836-48.079-11.836-48.57l13.013,19.377c1.593,2.468,4.408,3.965,7.296,3.965
		c2.681,0,5.414-1.243,7.284-3.945l12.971-19.315l0.026,88.192c0,6.002,4.865,10.867,10.867,10.867
		c6.002,0,10.867-4.865,10.867-10.867v-48.902h8.693v48.902c0,6.002,4.865,10.867,10.867,10.867c6.002,0,10.867-4.865,10.867-10.867
		c0-89.037-0.026-88.254-0.026-88.273l13.018,19.385c2.462,3.881,6.686,3.955,7.313,3.956c2.634,0.003,5.731-1.599,7.27-3.956
		l12.965-19.306l0.026,88.194c0,6.002,4.865,10.867,10.867,10.867c6.002,0,10.867-4.865,10.867-10.867v-48.902h8.693v48.902
		c0,6.002,4.865,10.867,10.867,10.867c6.002,0,10.867-4.865,10.867-10.867c0-89.041-0.026-88.253-0.026-88.272l13.092,19.494
		c2.677,3.986,8.078,5.047,12.064,2.37C295.706,169.962,296.767,164.561,294.09,160.576z"/>
	<path d="M240.51,97.503c11.504,0,20.834-9.322,20.834-20.834c0-7.313-3.782-13.736-9.49-17.452c1.132-0.756,2.421-1.456,3.92-2.065
		c0.712-0.288,1.19-0.964,1.226-1.73c0.036-0.767-0.377-1.485-1.059-1.84c-3.294-1.712-7.309-1.746-11.097-1.02
		c0.643-1.204,1.452-2.435,2.491-3.682c0.492-0.59,0.597-1.411,0.267-2.105c-0.329-0.693-1.032-1.132-1.801-1.123
		c-7.614,0.088-14.598,7.805-17.38,12.422c-0.496,0.822-0.894,1.682-1.194,2.554c-4.612,3.821-7.552,9.589-7.552,16.041
		C219.676,88.181,229.006,97.503,240.51,97.503z"/>
	<path d="M13.489,103.88c0.766,0.063,1.497-0.324,1.876-0.992c5.723-10.103,14.701-9.246,16.712-12.977
		c0.277-0.515,0.495-1.046,0.656-1.585c0.614,0.659,1.476,1.048,2.383,1.048c0.358,0,0.724-0.06,1.081-0.186
		c0.604-0.212,1.101-0.59,1.47-1.058c3.729,5.645,10.121,9.372,17.391,9.372c7.27,0,13.663-3.728,17.391-9.373
		c0.369,0.469,0.866,0.847,1.471,1.06c0.357,0.125,0.723,0.185,1.081,0.185c0.907,0,1.769-0.389,2.383-1.048
		c0.161,0.539,0.379,1.07,0.656,1.585c2.011,3.729,10.988,2.873,16.711,12.976c0.378,0.668,1.109,1.056,1.875,0.992
		c0.766-0.063,1.424-0.566,1.687-1.288c2.606-7.155-2.15-16.413-5.488-20.647c-2.872-3.643-7.292-5.609-11.376-3.409
		c-0.145,0.078-0.278,0.167-0.416,0.252l0.033-0.095c0.597-1.699-0.297-3.56-1.995-4.157c-1.164-0.407-2.395-0.104-3.252,0.664
		c-0.758-10.808-9.753-19.355-20.76-19.355c-11.007,0-20.001,8.548-20.76,19.354c-0.856-0.769-2.087-1.071-3.252-0.662
		c-1.699,0.597-2.592,2.458-1.994,4.156l0.033,0.094c-0.139-0.085-0.271-0.174-0.416-0.252c-4.085-2.2-8.505-0.233-11.378,3.409
		c-3.338,4.234-8.095,13.494-5.488,20.649C12.065,103.314,12.724,103.817,13.489,103.88z"/>
</g>
<g>
</g>
<g>
</g>
<g>
</g>
<g>
</g>
<g>
</g>
<g>
</g>
<g>
</g>
<g>
</g>
<g>
</g>
<g>
</g>
<g>
</g>
<g>
</g>
<g>
</g>
<g>
</g>
<g>
</g>
</svg>
